<svg xmlns="http://www.w3.org/2000/svg" xmlns:xlink="http://www.w3.org/1999/xlink" width="63.64" height="66.54" viewBox="0 0 63.64 66.54"><defs><style>.a,.d{fill:#3a678c;}.a,.b,.f,.j{stroke:#fff;stroke-miterlimit:10;}.b,.h{fill:url(#a);}.c,.f{fill:none;}.e{clip-path:url(#b);}.g{fill:#3e863d;}.i{clip-path:url(#d);}.j{fill:url(#e);}</style><linearGradient id="a" y1="0.5" x2="1" y2="0.5" gradientUnits="objectBoundingBox"><stop offset="0" stop-opacity="0.902"/><stop offset="1" stop-opacity="0.502"/></linearGradient><clipPath id="b"><path class="a" d="M4.18,34.81,31.75,7.24,59.33,34.81l-9.19,9.2-9.19-9.2L32.46,43.3l9.19,9.19-9.9,9.9Z"/></clipPath><clipPath id="d"><path class="b" d="M4.34,31.18,31.92,3.6,59.5,31.18l-9.19,9.19-9.2-9.19-8.48,8.49,9.19,9.19-9.9,9.9Z"/></clipPath><linearGradient id="e" x1="0" xlink:href="#a"/></defs><rect class="c" width="63.64" height="66.54"/><path class="d" d="M4.18,34.81,31.75,7.24,59.33,34.81l-9.19,9.2-9.19-9.2L32.46,43.3l9.19,9.19-9.9,9.9Z"/><g class="e"><rect class="a" width="55.15" height="55.15" transform="translate(4.18 7.24)"/></g><path class="f" d="M4.18,34.81,31.75,7.24,59.33,34.81l-9.19,9.2-9.19-9.2L32.46,43.3l9.19,9.19-9.9,9.9Z"/><path class="a" d="M4.18,34.81,31.75,7.24,59.33,34.81l-9.19,9.2-9.19-9.2L32.46,43.3l9.19,9.19-9.9,9.9Z"/><line class="g" x2="8.73" y2="8.73" transform="translate(23.98 34.82)"/><line class="f" x2="8.73" y2="8.73" transform="translate(23.98 34.82)"/><line class="g" x2="8.49" y2="8.49" transform="translate(32.46 26.33)"/><line class="f" x2="8.49" y2="8.49" transform="translate(32.46 26.33)"/><path class="h" d="M4.34,31.18,31.92,3.6,59.5,31.18l-9.19,9.19-9.2-9.19-8.48,8.49,9.19,9.19-9.9,9.9Z"/><g class="i"><rect class="j" width="55.15" height="55.15" transform="translate(4.34 3.6)"/></g><path class="f" d="M4.34,31.18,31.92,3.6,59.5,31.18l-9.19,9.19-9.2-9.19-8.48,8.49,9.19,9.19-9.9,9.9Z"/><path class="a" d="M4.34,31.18,31.92,3.6,59.5,31.18l-9.19,9.19-9.2-9.19-8.48,8.49,9.19,9.19-9.9,9.9Z"/><line class="h" x2="8.74" y2="8.74" transform="translate(24.14 31.18)"/><line class="f" x2="8.74" y2="8.74" transform="translate(24.14 31.18)"/><line class="h" x2="8.48" y2="8.48" transform="translate(32.63 22.7)"/><line class="f" x2="8.48" y2="8.48" transform="translate(32.63 22.7)"/></svg>