<?xml version="1.0" standalone="no"?>
<!DOCTYPE svg PUBLIC "-//W3C//DTD SVG 20010904//EN"
 "http://www.w3.org/TR/2001/REC-SVG-20010904/DTD/svg10.dtd">
<svg version="1.0" xmlns="http://www.w3.org/2000/svg"
 width="536.000000pt" height="536.000000pt" viewBox="0 0 536.000000 536.000000"
 preserveAspectRatio="xMidYMid meet">
<metadata>
Created by potrace 1.11, written by Peter Selinger 2001-2013
</metadata>
<g transform="translate(0.000000,536.000000) scale(0.100000,-0.100000)"
fill="#000000" stroke="none">
<path d="M1605 3930 l-1080 -1080 1082 -1082 1083 -1083 365 365 c201 201 365
370 365 375 0 6 -160 170 -356 365 -195 195 -507 507 -692 693 l-336 337 27
27 27 28 323 -323 c177 -177 327 -322 332 -322 13 0 615 602 615 615 0 5 -145
155 -322 332 l-322 322 29 31 29 31 699 -698 698 -698 334 340 c184 187 334
342 335 345 0 3 -485 490 -1078 1083 l-1077 1077 -1080 -1080z"/>
<path d="M3377 2742 c-20 -21 -37 -42 -37 -47 0 -14 804 -816 815 -813 6 2
161 155 344 340 l335 338 -34 35 c-19 19 -39 35 -45 35 -5 0 -141 -131 -300
-290 l-290 -290 -365 365 c-201 201 -370 365 -376 365 -5 0 -27 -17 -47 -38z"/>
<path d="M560 2605 l-45 -45 366 -368 c1337 -1345 1784 -1792 1794 -1792 5 0
174 164 375 365 l364 365 -39 40 -39 40 -323 -322 -323 -323 -1043 1043 -1042
1042 -45 -45z"/>
<path d="M3036 2399 c-124 -126 -226 -233 -226 -238 0 -4 16 -22 35 -41 29
-28 39 -32 52 -24 10 6 116 113 237 238 l219 227 -33 34 c-19 19 -39 35 -46
35 -6 0 -113 -104 -238 -231z"/>
</g>
</svg>
